<svg aria-hidden="true" style="position: absolute; width: 0; height: 0; overflow: hidden;" version="1.1"
    xmlns="http://www.w3.org/2000/svg"
    xmlns:xlink="http://www.w3.org/1999/xlink">
    <!-- HEADER ======================================-->
    <!-- e-mail -->
    <symbol id="e-mail" viewBox="0 0 16 12"
        xmlns="http://www.w3.org/2000/svg" >
        <path d="M14.5 0h-13C.673 0 0 .628 0 1.4v8.402c0 .772.673 1.4 1.5 1.4h13c.827 0 1.5-.628 1.5-1.4V1.4c0-.772-.673-1.4-1.5-1.4zm0 .933c.068 0 .133.014.192.037L8 6.384 1.308.97A.529.529 0 011.5.933h13zm0 9.335h-13c-.276 0-.5-.209-.5-.466V1.956l6.672 5.398A.52.52 0 008 7.468a.52.52 0 00.328-.114L15 1.956v7.846c0 .257-.224.466-.5.466z" />
    </symbol>
    <!-- telephone -->
    <symbol id="telephone" viewBox="0 0 10 15"
        xmlns="http://www.w3.org/2000/svg" >
        <path d="M8.5 0h-7C.673 0 0 .628 0 1.4v12.136c0 .772.673 1.4 1.5 1.4h7c.827 0 1.5-.628 1.5-1.4V1.4C10 .628 9.327 0 8.5 0zm-7 .933h7c.276 0 .5.21.5.467v9.802H1V1.4c0-.257.224-.467.5-.467zm7 13.07h-7c-.276 0-.5-.21-.5-.467v-1.4h8v1.4c0 .257-.224.466-.5.466z" />
        <path d="M2.354 12.739a.445.445 0 010 .66.525.525 0 01-.708 0 .445.445 0 010-.66.525.525 0 01.708 0z" />
    </symbol>
    <!-- MAIN ============================================-->
    <!-- section 2 -->
    <!-- antenna -->
    <symbol id="antenna" viewBox="0 0 70 70" fill="none"
        xmlns="http://www.w3.org/2000/svg" >
        <path d="M67.316 48.339l-18.47-18.605 2.05-10.097a4.655 4.655 0 001.66.319h.014a4.723 4.723 0 10-4.394-3.14l-10.85 1.325L19.628.35a1.166 1.166 0 00-.824-.35c-.306.002-.6.124-.817.34L14.68 3.63a1.167 1.167 0 000 1.65l1.78 1.805a32.686 32.686 0 005.511 38.638c.094.09.202.161.32.213a6.77 6.77 0 00-.114 1.197v13.534h-14A5.84 5.84 0 002.342 66.5v2.333c0 .645.523 1.167 1.167 1.167h53.667c.644 0 1.166-.522 1.166-1.167V66.5a5.84 5.84 0 00-5.833-5.833h-14v-5.998c2.193.46 4.428.694 6.669.7a32.483 32.483 0 0015.4-3.901l1.79 1.8c.216.221.513.347.823.35.306-.002.6-.124.817-.34l3.308-3.29a1.167 1.167 0 000-1.65zM50.925 13.635a2.333 2.333 0 111.645 3.987h-.008a2.333 2.333 0 01-1.633-3.987h-.004zM48.178 21.3l-1.309 6.444-2.571-2.587 3.88-3.857zm-1.325-1.973l-4.2 4.176-3.25-3.267 7.45-.909zM52.509 63a3.5 3.5 0 013.5 3.5v1.167H4.676V66.5a3.5 3.5 0 013.5-3.5h44.333zm-16.333-4.667v2.334H24.509v-2.334h11.667zM24.509 56v-8.867c0-2.83 2.617-5.133 5.833-5.133 3.217 0 5.834 2.303 5.834 5.133V56H24.509zm14-3.71v-5.157c0-4.117-3.663-7.466-8.167-7.466a8.312 8.312 0 00-7.177 3.907A30.34 30.34 0 0118.18 8.82l40.692 40.925a30.233 30.233 0 01-20.363 2.544zm24.695-1.496l-1.644-1.653L18.792 6.116l-1.65-1.655 1.65-1.645L36.15 20.272c.008 0 .013.015.021.021l28.688 28.856-1.655 1.645z" fill="#212121"/>
        <path d="M30.353 44.333h-.01a3.5 3.5 0 10-.011 7h.01a3.5 3.5 0 00.01-7zm.816 4.327a1.166 1.166 0 11-.827-1.993 1.166 1.166 0 01.817 1.993h.01z" fill="#2196F3"/>
        <path d="M67.316 48.339l-18.47-18.605 2.05-10.097a4.655 4.655 0 0 0 1.66.319h.014a4.723 4.723 0 1 0-4.394-3.14l-10.85 1.325L19.628.35a1.166 1.166 0 0 0-.824-.35 1.17 1.17 0 0 0-.817.34L14.68 3.63a1.167 1.167 0 0 0 0 1.65l1.78 1.805a32.686 32.686 0 0 0 5.511 38.638c.094.09.202.161.32.213a6.77 6.77 0 0 0-.114 1.197v13.534h-14A5.84 5.84 0 0 0 2.342 66.5v2.333c0 .645.523 1.167 1.167 1.167h53.667c.644 0 1.166-.522 1.166-1.167V66.5a5.84 5.84 0 0 0-5.833-5.833h-14v-5.998c2.193.46 4.428.694 6.669.7a32.483 32.483 0 0 0 15.4-3.901l1.79 1.8c.216.221.513.347.823.35.306-.002.6-.124.817-.34l3.308-3.29a1.167 1.167 0 0 0 0-1.65zM50.925 13.635a2.333 2.333 0 1 1 1.645 3.987h-.008a2.333 2.333 0 0 1-1.633-3.987h-.004zM48.178 21.3l-1.309 6.444-2.571-2.587 3.88-3.857zm-1.325-1.973l-4.2 4.176-3.25-3.267 7.45-.909zM52.509 63a3.5 3.5 0 0 1 3.5 3.5v1.167H4.676V66.5a3.5 3.5 0 0 1 3.5-3.5h44.333zm-16.333-4.667v2.334H24.509v-2.334h11.667zM24.509 56v-8.867c0-2.83 2.617-5.133 5.833-5.133 3.217 0 5.834 2.303 5.834 5.133V56H24.509zm14-3.71v-5.157c0-4.117-3.663-7.466-8.167-7.466a8.312 8.312 0 0 0-7.177 3.907A30.34 30.34 0 0 1 18.18 8.82l40.692 40.925a30.233 30.233 0 0 1-20.363 2.544zm24.695-1.496l-1.644-1.653L18.792 6.116l-1.65-1.655 1.65-1.645L36.15 20.272c.008 0 .013.015.021.021l28.688 28.856-1.655 1.645z"
      fill="#212121"></path>
        <path d="M30.353 44.333h-.01a3.5 3.5 0 1 0-.011 7h.01a3.5 3.5 0 0 0 .01-7zm.816 4.327a1.166 1.166 0 1 1-.827-1.993 1.166 1.166 0 0 1 .817 1.993h.01z" fill="#2196F3"></path>
    </symbol>
    <!-- clock -->
    <symbol id="clock" viewBox="0 0 70 70" fill="none"
        xmlns="http://www.w3.org/2000/svg" >
        <g clip-path="url(#clip0)">
            <path d="M68.461 33.471C68.458 14.982 53.466-.004 34.975 0 16.485.004 1.5 14.996 1.504 33.486A33.479 33.479 0 0024.799 65.37c.133.042.27.063.41.063.263 0 .521-.071.748-.205.296-.175.516-.453.62-.78l8.454-26.797a4.184 4.184 0 10-1.837-7.95L22.025 18.53a1.395 1.395 0 00-1.972 1.973l11.163 11.176a4.104 4.104 0 001.173 5.051l-8.055 25.535C8.414 56.4.262 38.74 6.126 22.82 11.991 6.9 29.65-1.252 45.571 4.613c15.92 5.864 24.072 23.524 18.207 39.444A30.72 30.72 0 0147.455 61.5l-.87-4.1a1.394 1.394 0 00-2.294-.752l-8.393 7.494a1.394 1.394 0 00.505 2.372l10.716 3.42a1.394 1.394 0 001.791-1.619l-.855-4.022a33.37 33.37 0 0020.406-30.82zm-33.478-1.394a1.395 1.395 0 110 2.79 1.395 1.395 0 010-2.79zm4.594 32.515l4.778-4.262 1.319 6.213-6.097-1.951z" fill="#212121"/>
            <path d="M33.588 6.967v2.79a1.395 1.395 0 102.79 0v-2.79a1.395 1.395 0 00-2.79 0zM8.479 32.077a1.395 1.395 0 000 2.79h2.79a1.395 1.395 0 100-2.79h-2.79zM61.487 34.867a1.395 1.395 0 100-2.79h-2.79a1.395 1.395 0 000 2.79h2.79z" fill="#2196F3"/>
        </g>
        <defs>
            <clipPath id="clip0">
                <path fill="#fff" d="M0 0h70v70H0z"/>
            </clipPath>
        </defs>
    </symbol>
    <!-- diagram -->
    <symbol id="diagram" viewBox="0 0 70 70" fill="none"
        xmlns="http://www.w3.org/2000/svg" >
        <g clip-path="url(#clip0)">
            <path d="M32.65 32.735h2.331V43.23H32.65V32.735zM41.978 37.4h2.332v5.83h-2.332V37.4zM23.321 40.898h2.332v2.332h-2.332v-2.332zM16.325 39.731h2.332v3.499h-2.332V39.73z" fill="#2196F3"/>
            <path d="M3.498 61.886h55.97a3.498 3.498 0 003.499-3.498v-4.664a3.498 3.498 0 00-3.498-3.498h-1.166v-29.08l6.623-6.274a3.518 3.518 0 10-1.633-1.668l-4.99 4.73v-2.69a3.498 3.498 0 00-3.498-3.498H8.162a3.498 3.498 0 00-3.498 3.498v34.982H3.498A3.498 3.498 0 000 53.724v4.664a3.498 3.498 0 003.498 3.498zM66.465 10.58a1.166 1.166 0 110 2.332 1.166 1.166 0 010-2.332zM6.996 15.244c0-.644.522-1.166 1.166-1.166h46.643c.644 0 1.166.522 1.166 1.166v4.897l-2.332 2.216v-4.78c0-.645-.523-1.167-1.167-1.167H10.495c-.644 0-1.167.522-1.167 1.166v29.152c0 .644.523 1.166 1.167 1.166h41.977c.645 0 1.167-.522 1.167-1.166V25.565l2.332-2.21v26.87H6.996v-34.98zm10.495 15.159a3.498 3.498 0 102.422 6.012l4.053 2.034c.471.235 1.042.125 1.392-.269l8.616-9.693 8.47 6.347c.455.34 1.089.304 1.501-.086l7.361-6.973v17.787H11.661v-26.82h39.645v5.82l-8.25 7.813-8.54-6.403a1.167 1.167 0 00-1.572.157l-8.734 9.828-3.265-1.633a3.3 3.3 0 00.044-.423 3.498 3.498 0 00-3.498-3.498zm1.166 3.498a1.166 1.166 0 11-2.332 0 1.166 1.166 0 012.332 0zm6.996 18.657h11.66v1.166c0 .644-.521 1.166-1.165 1.166h-9.329a1.166 1.166 0 01-1.166-1.166v-1.166zm-23.32 1.166c0-.644.521-1.166 1.165-1.166h19.823v1.166a3.498 3.498 0 003.498 3.498h9.329a3.498 3.498 0 003.498-3.498v-1.166h19.823c.644 0 1.166.522 1.166 1.166v4.664c0 .644-.522 1.166-1.166 1.166H3.499a1.166 1.166 0 01-1.167-1.166v-4.664z" fill="#212121"/>
        </g>
        <defs>
            <clipPath id="clip0">
                <path fill="#fff" d="M0 0h70v70H0z"/>
            </clipPath>
        </defs>
    </symbol>
    <!-- astronaut -->
    <symbol id="astronaut" viewBox="0 0 70 70" fill="none"
        xmlns="http://www.w3.org/2000/svg" >
        <path d="M69.943 9.896a1.168 1.168 0 00-.941-.793l-4.179-.608-1.87-3.787c-.392-.798-1.7-.798-2.092 0l-1.87 3.787-4.18.608a1.167 1.167 0 00-.648 1.99l3.026 2.948-.714 4.162c-.074.438.105.88.464 1.142a1.16 1.16 0 001.23.088l3.737-1.966 3.738 1.966a1.168 1.168 0 001.693-1.23l-.713-4.162 3.025-2.949a1.17 1.17 0 00.294-1.196zM64.556 12.8c-.274.267-.4.655-.335 1.033l.418 2.437-2.189-1.15a1.165 1.165 0 00-1.087 0l-2.19 1.15.419-2.437a1.168 1.168 0 00-.335-1.033l-1.773-1.726 2.448-.356c.38-.055.708-.294.879-.639l1.094-2.216L63 10.078c.17.345.499.584.879.639l2.448.355-1.77 1.727zM57.167 44.892h-2.334v2.334h2.334v-2.334zM57.167 49.56h-2.334v2.332h2.334V49.56zM59.5 47.226h-2.333v2.333H59.5v-2.333z" fill="#2196F3"/>
        <path d="M54.834 47.226H52.5v2.333h2.334v-2.333zM49 57.726h-2.333v2.333H49v-2.333zM49 62.393h-2.333v2.333H49v-2.333zM51.333 60.06H49v2.333h2.333v-2.334zM46.667 60.06h-2.334v2.333h2.334v-2.334zM35 53.06h-2.334v2.333H35v-2.334zM35 57.726h-2.334v2.333H35v-2.333zM37.333 55.392H35v2.334h2.333v-2.334zM32.666 55.392h-2.333v2.334h2.333v-2.334zM12.833 13.392h-2.334v2.333h2.334v-2.333zM12.833 18.059h-2.334v2.333h2.334v-2.333zM15.166 15.725h-2.333v2.334h2.333v-2.334zM10.5 15.725H8.165v2.334h2.333v-2.334z" fill="#2196F3"/>
        <path d="M54.063 30.974a3.88 3.88 0 00-2.599-1.541 3.886 3.886 0 00-2.93.77L45.794 32.3l-.001.002-4.151 3.1-2.97-1.184c5.296-2.376 8.998-7.674 8.998-13.825 0-8.362-6.83-15.167-15.227-15.167s-15.228 6.804-15.228 15.167c0 3.031.907 5.85 2.45 8.222l-6.046-.053h-.01c-.019 0-.034.01-.051.01a1.136 1.136 0 00-.34.069c-.028.01-.057.016-.084.029-.014.006-.028.007-.042.014l-7.072 3.491c-.001 0-.003 0-.003.002l-4.141 1.991a.898.898 0 00-.138.077A3.895 3.895 0 00.43 39.268a3.884 3.884 0 002.31 1.944 3.891 3.891 0 003.016-.281l3.036-1.614 4.952-2.558 2.968-.017L4.808 48.588c0 .002-.002.002-.003.003l-2.929 2.916a3.607 3.607 0 00-1.072 2.577c0 .973.38 1.888 1.072 2.578a3.647 3.647 0 002.58 1.062c.936 0 1.869-.355 2.582-1.062l2.875-2.863 3.808-2.843 1.97 1.962-3.854 3.837-.003.002-2.928 2.917a3.607 3.607 0 00-1.073 2.576c0 .973.38 1.89 1.073 2.579a3.65 3.65 0 002.58 1.061c.935 0 1.87-.354 2.582-1.061l2.93-2.917 4.686-4.667.002-.003 2.21-2.188-.01-.008c.015-.014.035-.019.049-.034l11.3-12.377 7.593 1.08c.055.008.11.012.164.012.142 0 .278-.034.41-.084.039-.014.072-.033.109-.051.042-.021.086-.033.126-.06l7.029-4.666c.026-.018.04-.046.064-.065.028-.022.063-.031.089-.056l2.78-2.605a3.891 3.891 0 00.465-5.166zM4.66 38.872c-.379.203-.81.244-1.221.113a1.564 1.564 0 01-.465-2.755l2.874-1.383.692 2.022.29.85-2.17 1.153zm7.65-3.998l-3.387 1.75-.558-1.633-.402-1.174 4.434-2.189-.087 3.246zm33.03-14.482c0 2.009-.48 3.904-1.31 5.599l-9.147-4.155a4.07 4.07 0 00-1.724-3.035L36.36 8.168c5.202 1.654 8.98 6.506 8.98 12.223zm-25.788 0c0-7.076 5.784-12.834 12.894-12.834.553 0 1.094.047 1.63.115L30.943 18.07c-.042 0-.081-.013-.125-.013a4.094 4.094 0 00-4.096 4.084 4.094 4.094 0 004.096 4.083c1.52 0 2.832-.838 3.54-2.066l8.45 3.839c-2.352 3.164-6.114 5.227-10.362 5.227-7.11 0-12.894-5.757-12.894-12.833zm13.03 1.75c0 .965-.792 1.75-1.764 1.75a1.759 1.759 0 01-1.762-1.75c0-.965.79-1.75 1.762-1.75s1.763.785 1.763 1.75zM5.391 55.007a1.331 1.331 0 01-1.87.002 1.299 1.299 0 010-1.847l2.105-2.097L7.49 52.92l-2.097 2.089zm7.03 8.167a1.33 1.33 0 01-1.87.002 1.3 1.3 0 010-1.847l2.106-2.098.88.876.983.978-2.099 2.09zm7.616-7.588l-.003.003-3.86 3.85-.882-.877-.982-.977 3.857-3.84v-.001l.004-.002c.087-.088.142-.193.196-.297.015-.03.044-.056.057-.087.036-.09.042-.187.056-.281.007-.054.03-.104.03-.159 0-.078-.028-.154-.044-.231-.014-.07-.014-.141-.041-.209a1.167 1.167 0 00-.2-.3c-.022-.027-.03-.06-.054-.084h-.002s0-.003-.002-.004l-3.515-3.5c-.037-.038-.085-.053-.127-.084a1.112 1.112 0 00-.19-.127 1.095 1.095 0 00-.205-.07 1.125 1.125 0 00-.225-.044 1.132 1.132 0 00-.209.01c-.078.01-.151.02-.227.045a1.08 1.08 0 00-.207.098c-.043.024-.092.033-.133.063l-3.879 2.896-1.97-1.963 5.247-5.22 9.54 9.382-2.03 2.01zm14.916-15.349c-.033-.004-.065.008-.099.006a1.153 1.153 0 00-.252.015 1.075 1.075 0 00-.404.15 1.13 1.13 0 00-.181.134c-.028.024-.062.036-.088.064L23.653 51.862l-9.468-9.311 6.197-6.165a1.168 1.168 0 00-.83-1.993l-4.854.028.061-3.516 6.79.058a15.2 15.2 0 0010.897 4.596c.957 0 1.89-.1 2.799-.268.087.07.174.14.283.185l5.272 2.1.333 1.66.39 1.936-6.569-.935zm8.84.39l-.684-3.408 3.164-2.363.828 1.1 1.242 1.65-4.55 3.02zm8.212-6.193l-1.833 1.718-2.037-2.705 1.818-1.394c.34-.261.768-.367 1.188-.313.422.06.796.28 1.05.622a1.562 1.562 0 01-.187 2.072z" fill="#212121"/>
        <path d="M29.755 40.565l-4.688-4.667a1.166 1.166 0 00-1.646 0l-4.687 4.667a1.172 1.172 0 000 1.654l4.687 4.667a1.165 1.165 0 001.646 0l4.688-4.667a1.167 1.167 0 000-1.654zm-5.51 3.848l-3.034-3.02 3.033-3.021 3.035 3.02-3.035 3.02zM37.547 11.092l-.564 2.266c.156.039 3.802.988 3.802 4.7h2.333c0-4.412-3.644-6.486-5.571-6.966zM43.118 20.392h-2.334v2.333h2.334v-2.333z" fill="#212121"/>
    </symbol>
    <!-- Socials ================================ -->
    <!-- instagram -->
  <symbol id="instagram" viewBox="0 0 32 32">
      <path d="M23.258 13.004c-.033-.773-.159-1.304-.337-1.764a3.57 3.57 0 00-.841-1.29l-.001-.001a3.583 3.583 0 00-1.263-.83l-.024-.008c-.463-.179-.991-.304-1.764-.337-.778-.037-1.025-.046-3.001-.046s-2.222.009-2.998.043c-.773.033-1.304.159-1.764.338a3.58 3.58 0 00-1.29.84l-.001.001c-.36.354-.645.784-.83 1.263l-.008.024c-.18.463-.304.991-.338 1.764-.037.778-.046 1.025-.046 3.001s.009 2.222.043 2.998c.034.773.159 1.304.338 1.764.194.505.48.935.84 1.29h.001c.364.369.804.656 1.287.838.463.18.992.305 1.764.338.776.034 1.023.043 2.998.043s2.222-.009 2.998-.043c.773-.033 1.304-.159 1.764-.337a3.741 3.741 0 002.12-2.104l.009-.025c.179-.463.304-.992.338-1.764.034-.776.042-1.023.042-2.998s-.003-2.222-.036-2.998zm-1.309 5.939c-.032.711-.151 1.094-.25 1.349a2.428 2.428 0 01-1.365 1.376l-.016.006c-.255.099-.641.218-1.349.249-.767.034-.997.043-2.938.043s-2.174-.009-2.938-.043c-.711-.031-1.094-.151-1.35-.25a2.237 2.237 0 01-.834-.542l-.001-.001a2.268 2.268 0 01-.538-.819l-.005-.016c-.099-.256-.218-.642-.249-1.35-.034-.767-.043-.998-.043-2.938s.009-2.175.043-2.938c.031-.711.151-1.094.249-1.35.122-.328.308-.608.545-.835l.001-.001c.229-.235.509-.42.821-.537l.016-.005c.255-.099.641-.218 1.349-.25.767-.033.998-.042 2.938-.042 1.943 0 2.174.008 2.938.042.711.031 1.094.151 1.35.25.315.116.602.301.835.543.241.236.426.52.543.836.099.255.218.641.249 1.349.034.767.043.997.043 2.938s-.009 2.167-.043 2.935z"/>
      <path d="M16.027 12.265h-.001a3.737 3.737 0 103.737 3.737v-.001a3.737 3.737 0 00-3.737-3.737zm0 6.16a2.424 2.424 0 110-4.848 2.424 2.424 0 110 4.848zm4.757-6.308a.873.873 0 01-1.746 0 .873.873 0 011.746 0z"/>
    </symbol>
    <!-- twitter -->
  <symbol id="twitter" viewBox="0 0 31 32">
      <path d="M23.273 11.49c-.5.224-1.08.39-1.688.467l-.031.003a2.98 2.98 0 001.306-1.627l.006-.021a5.851 5.851 0 01-1.853.715l-.038.006a2.981 2.981 0 00-5.158 2.036v.003c0 .236.02.464.07.68a8.443 8.443 0 01-6.147-3.119 2.984 2.984 0 00.917 3.986 2.937 2.937 0 01-1.362-.375l.015.008v.033a2.995 2.995 0 002.37 2.927l.02.003a2.906 2.906 0 01-.756.098h-.028.001-.047c-.183 0-.362-.019-.534-.054l.017.003a3.012 3.012 0 002.786 2.078 5.948 5.948 0 01-3.69 1.271h-.047c-.238 0-.472-.015-.701-.044l.027.003a8.317 8.317 0 004.547 1.338h.029-.002c5.487 0 8.487-4.545 8.487-8.486 0-.131-.004-.259-.011-.385a5.978 5.978 0 001.481-1.526l.014-.021z"/>
    </symbol>
    <!-- facebook -->
    <symbol id="facebook" viewBox="0 0 33 32">
      <path d="M18.422 11.142h1.329V8.829c-.56-.065-1.21-.102-1.867-.102h-.071.004c-1.915 0-3.226 1.204-3.226 3.418v2.036h-2.113v2.585h2.113v6.505h2.59v-6.505h2.028l.321-2.585h-2.349v-1.782c0-.747.201-1.258 1.243-1.258z"/>
    </symbol>
    <!--linkedin  -->
  <symbol id="linkedin" viewBox="0 0 32 34">
      <path d="M23.269 23.273h.004v-5.335c0-2.609-.561-4.62-3.612-4.62-1.467 0-2.451.804-2.853 1.567h-.042v-1.324h-2.893v9.711h3.012v-4.808c0-1.266.24-2.491 1.808-2.491 1.545 0 1.568 1.445 1.568 2.572v4.728h3.009zM8.967 13.562h3.016v9.711H8.967v-9.711zm1.507-4.835c-.965 0-1.747.782-1.747 1.747 0 .964.783 1.763 1.747 1.763s1.746-.799 1.746-1.763c0-.964-.782-1.746-1.746-1.747z"/>
    </symbol>
    <!-- Partners ================================-->
    <!-- client-1 -->
    <symbol id="client-1" viewBox="0 0 62 32">
        <path d="M31.123 14.854a2.248 2.248 0 01-.396-1.437v.007-2.074c0-.637.131-1.12.394-1.45s.715-.495 1.356-.494c.602 0 1.03.141 1.282.422.275.359.41.798.378 1.241v.487h-1.076v-.494l.001-.064c0-.148-.012-.293-.034-.435l.002.016a.482.482 0 00-.153-.287.575.575 0 00-.345-.113l-.048.002h.002a.616.616 0 00-.412.119l.002-.001a.568.568 0 00-.178.313l-.001.004a2.594 2.594 0 00-.042.513v2.518c-.017.243.031.486.138.707a.526.526 0 00.212.171l.003.001a.544.544 0 00.28.04h-.003a.545.545 0 00.382-.115l-.001.001a.522.522 0 00.16-.303v-.003c.026-.167.037-.336.034-.504v-.511h1.076v.466a2.018 2.018 0 01-.376 1.311l.004-.006c-.247.308-.669.462-1.288.462s-1.088-.164-1.354-.506zm4.485.022c-.272-.323-.408-.794-.408-1.416v-2.183c0-.616.136-1.082.408-1.399s.726-.474 1.364-.473c.633 0 1.085.158 1.358.473.271.317.41.783.41 1.399v2.183c0 .616-.139 1.089-.415 1.414s-.726.487-1.353.487c-.626 0-1.09-.164-1.364-.485zm1.865-.524c.097-.202.142-.424.129-.646v-2.672l.002-.072a1.28 1.28 0 00-.133-.569l.003.007a.528.528 0 00-.216-.173l-.003-.001a.533.533 0 00-.287-.037h.003a.546.546 0 00-.289.039l.004-.001a.53.53 0 00-.22.172l-.001.001a1.263 1.263 0 00-.129.633v2.685a1.29 1.29 0 00.129.646.676.676 0 00.223.158l.004.002a.692.692 0 00.558-.002l-.005.002a.672.672 0 00.226-.16v-.013zm2.562-4.884h1.16l.872 4.028.892-4.028h1.128l.113 5.813h-.833l-.089-4.04-.861 4.04h-.669l-.892-4.054-.083 4.054h-.843l.104-5.812zm5.465 0h1.806c1.041 0 1.561.55 1.561 1.651 0 1.054-.548 1.58-1.643 1.579h-.616v2.583h-1.114l.007-5.812zm1.543 2.484a.791.791 0 00.613-.183c.128-.197.184-.427.161-.657l.001-.064c0-.164-.02-.324-.057-.476l.003.014a.425.425 0 00-.083-.161l.001.001a.496.496 0 00-.138-.116l-.002-.001a1.057 1.057 0 00-.501-.092h.003-.433v1.736h.433zm3.431-2.484h1.197l1.229 5.813h-1.039l-.243-1.341H50.55l-.25 1.341h-1.054l1.229-5.812zm1.023 3.799l-.417-2.44-.417 2.44h.834zm2.394-3.799h.781l1.494 3.316V9.468h.925v5.812h-.742l-1.503-3.462v3.462h-.957l.002-5.812zm5.367 3.596l-1.242-3.588h1.046l.758 2.305.711-2.305h1.023l-1.226 3.588v2.216h-1.07v-2.216zm-26.413 4.758v.304h-.91v2.362h-.381v-2.362h-.914v-.304h2.205zm2.852 2.666h-.302a.124.124 0 01-.075-.026.134.134 0 01-.048-.06v-.001l-.263-.633h-1.262l-.263.633a.181.181 0 01-.04.072.124.124 0 01-.076.025h-.301l1.115-2.666h.387l1.128 2.655zm-1.847-.99h1.053l-.445-1.085a1.908 1.908 0 01-.08-.236l-.003-.014-.042.141-.04.111-.442 1.083zm3.769.728c.07.003.139.003.209 0 .061-.006.12-.017.179-.032.064-.015.117-.032.169-.052l-.009.003c.049-.019.098-.042.15-.065v-.6h-.451a.082.082 0 01-.055-.021.059.059 0 01-.022-.047v-.207h.865v1.022a1.598 1.598 0 01-.459.214l-.012.003a1.76 1.76 0 01-.27.055l-.009.001a2.896 2.896 0 01-.321.017h-.017c-.197 0-.386-.037-.56-.103l.011.004a1.355 1.355 0 01-.446-.279l.001.001a1.293 1.293 0 01-.285-.414l-.003-.008a1.415 1.415 0 01-.102-.534v-.02-.018c0-.194.037-.379.104-.549l-.004.01c.064-.158.162-.301.287-.422.127-.12.279-.214.446-.277a1.71 1.71 0 01.598-.099c.104 0 .207.007.31.023a1.4 1.4 0 01.487.173c.069.042.134.088.195.139l-.108.165a.103.103 0 01-.036.036.098.098 0 01-.051.014.134.134 0 01-.069-.021h.001a1.153 1.153 0 01-.114-.066l.005.003a.905.905 0 00-.143-.07l-.007-.002a1.21 1.21 0 00-.197-.058l-.008-.001a1.495 1.495 0 00-.268-.023h-.016.001-.013c-.15 0-.293.027-.425.077l.008-.003a.94.94 0 00-.328.211.924.924 0 00-.207.332 1.338 1.338 0 00.003.898l-.003-.009c.049.125.125.24.223.335a.935.935 0 00.326.211c.142.046.292.064.442.053zm3.553-.042h1.217v.304h-1.59v-2.666h.381l-.009 2.362zm2.484.303h-.381v-2.664h.381v2.666zm1.418-2.653a.21.21 0 01.058.049l1.63 2.01-.002-.048.002-.05v.002-1.986h.333v2.676h-.192l-.013.001a.171.171 0 01-.071-.016h.001a.266.266 0 01-.06-.05l-1.628-2.007v2.072h-.319v-2.665h.198c.022 0 .043.004.063.013zm4.827-.012v.294H48.55v.88h1.095v.282H48.55v.91h1.351v.294h-1.743v-2.659h1.743zM9.95 1.359l16.929 4.55v15.946L9.952 17.308V1.359zM8.865 0v18.081l19.098 5.135V5.136L8.865-.001z"/>
        <path d="M19.1 31.61L0 26.471V8.391l19.1 5.137V31.61z"/>
        <path d="M9.181 1.155l16.707 4.493-7.105 6.728-16.71-4.495L9.18 1.154zM8.865 0L0 8.392l19.1 5.137 8.863-8.392L8.865 0zm11.31 30.593l7.787-7.374-7.787-2.096v9.47z"/>
    </symbol>
    <!-- client-2 -->
    <symbol id="client-2" viewBox="0 0 29 32">
        <path d="M3.84 0l4.677 4.428h13.046v12.351l4.677 4.428V.001H3.84z"/>
        <path d="M0 4.241v20.6h21.76v-8.188L8.655 4.246 0 4.241zm17.615 17.587H3.443V7.973h1.002V20.89h13.17v.938zM6.266 28.662l.524-1.078h.438l-.764 1.437v.838h-.397v-.838l-.764-1.437h.439l.524 1.078zm2.247.667h-.881l-.184.53h-.411l.859-2.275h.355l.861 2.275h-.413l-.186-.53zm-.77-.319h.659l-.33-.944-.33.944zm2.328.234c0-.105.029-.202.086-.289.058-.089.17-.193.339-.314a1.498 1.498 0 01-.182-.276l-.004-.008a.568.568 0 01-.052-.226c0-.179.054-.319.163-.422s.254-.156.437-.156a.57.57 0 01.406.147c.106.097.16.218.16.361v.003a.497.497 0 01-.074.262l.001-.002a.858.858 0 01-.233.236l-.003.002-.155.113.44.518a.914.914 0 00.095-.417h.33c0 .28-.065.509-.196.689l.334.396h-.44l-.128-.152a.93.93 0 01-.558.183h-.025.001c-.225 0-.405-.06-.54-.179a.597.597 0 01-.202-.447v-.021.001zm.753.343a.58.58 0 00.359-.128l-.497-.586-.049.035c-.125.095-.188.203-.188.325 0 .105.034.191.102.256a.375.375 0 00.254.099h.019-.001zm-.21-1.466c0 .088.054.197.161.33l.173-.118.049-.039a.283.283 0 00.097-.212v-.009-.002a.2.2 0 00-.067-.149.233.233 0 00-.162-.064h-.019a.224.224 0 00-.167.075.276.276 0 00-.066.179v.01zm4.134.997c-.023.243-.113.432-.269.568s-.364.204-.623.204a.902.902 0 01-.48-.128.86.86 0 01-.317-.362l-.002-.005a1.302 1.302 0 01-.117-.544v-.22c0-.214.038-.403.114-.567a.871.871 0 01.326-.378.913.913 0 01.494-.133c.251 0 .453.068.606.205s.243.329.268.578h-.394c-.019-.163-.067-.281-.144-.353-.076-.073-.188-.109-.336-.109a.464.464 0 00-.397.189c-.092.125-.138.309-.141.552v.202c0 .246.044.433.132.563s.218.194.387.194c.155 0 .272-.035.35-.105s.128-.186.148-.348h.394zm2.17-.338c0 .223-.038.419-.115.588a.88.88 0 01-.332.388.905.905 0 01-.494.134.92.92 0 01-.493-.134.897.897 0 01-.332-.38l-.002-.006a1.335 1.335 0 01-.119-.555v-.023.001-.128c0-.222.038-.418.117-.588s.19-.3.333-.389c.144-.091.308-.136.493-.136s.35.045.493.134c.143.089.255.217.333.384s.118.362.118.584v.126zm-.396-.118c0-.252-.048-.445-.143-.58a.465.465 0 00-.384-.202l-.022.001h.001-.016a.468.468 0 00-.384.2l-.001.002c-.096.133-.145.323-.147.567v.131c0 .25.049.444.146.58s.233.205.406.205c.175 0 .31-.067.403-.2.095-.133.142-.328.142-.584v-.118z"/>
    </symbol>
    <!-- client-3 -->
    <symbol id="client-3" viewBox="0 0 25 32">
        <path d="M10.447 1.806h.084c.156 0 .324.015.49.03a13.96 13.96 0 012.18.329V.403a12.432 12.432 0 00-2.207-.357l-.042-.002c-.254-.02-.571-.035-.889-.043H9.779c-1.523.006-3.04.201-4.515.582a18.28 18.28 0 00-4.79 1.948v17.475a18.922 18.922 0 014.431-1.75l.135-.029a19.11 19.11 0 013.78-.586l.052-.002h.052c.216-.011.433-.017.655-.018V15.83c-1.78.024-3.493.264-5.129.695l.147-.033c-.603.157-1.185.326-1.731.513l-.623.212V3.591l.266-.128c1.89-.918 4.096-1.513 6.424-1.649l.047-.002.028-.001.029.001h-.001c.248-.012.497-.018.742-.018h.28c.129.003.258.006.388.014z"/>
        <path d="M14.838 3.651h-.016c-.915 0-1.811-.077-2.684-.225l.094.013c-.277-.047-.55-.103-.814-.164V20.55c1.12.277 2.271.412 3.425.404a18.432 18.432 0 004.643-.61l-.128.029a18.299 18.299 0 004.877-1.995l-.085.047V1.262a19.021 19.021 0 01-4.429 1.751l-.136.03a19.338 19.338 0 01-4.746.609zm6.907.299l.623-.209v13.63l-.266.129c-.903.443-1.963.834-3.065 1.118l-.119.026a16.52 16.52 0 01-4.074.527c-.411 0-.818-.017-1.214-.052l-.426-.038V5.064l.497.033c.361.023.735.034 1.141.034a21.134 21.134 0 005.32-.696l-.147.033a25.26 25.26 0 001.924-.576l-.193.058zM1.684 25.977a.916.916 0 00-.661-.281l-.033.001h.002-.014c-.139 0-.272.028-.393.078l.007-.003a.904.904 0 00-.51.512l-.002.006a1.002 1.002 0 00-.072.386v2.335c-.006.164.026.328.092.479a.83.83 0 00.554.479c.114.031.231.048.349.048a.985.985 0 00.968-.982v-.261h-.61v.221a.53.53 0 01-.038.199l.001-.004a.38.38 0 01-.089.132.426.426 0 01-.255.089.308.308 0 01-.286-.125l-.001-.001a.548.548 0 01-.082-.289l.001-.024v.001-2.177a.74.74 0 01.075-.349.31.31 0 01.262-.143l.038.002H.986h.012c.107 0 .201.052.26.131l.001.001a.494.494 0 01.102.301v.013-.001.202h.604v-.238-.011c0-.143-.027-.28-.077-.405l.003.007a.955.955 0 00-.205-.329zm3.626-.026a1.055 1.055 0 00-1.058-.191.963.963 0 00-.556.511l-.002.006a1.08 1.08 0 00-.089.452v2.239c-.004.158.026.314.089.458a.89.89 0 00.237.313.955.955 0 00.322.197 1.048 1.048 0 001.06-.198l-.001.001a.962.962 0 00.23-.313c.063-.144.093-.301.089-.458v-2.239-.021c0-.156-.033-.304-.092-.438l.003.007a1.016 1.016 0 00-.23-.327zm-.285 3.018l.001.034a.4.4 0 01-.123.29.445.445 0 01-.575-.001l.001.001a.398.398 0 01-.121-.326v.002-2.239l-.001-.034a.4.4 0 01.123-.289.445.445 0 01.575.001l-.001-.001a.4.4 0 01.121.325v-.002 2.24zm5.047 1v-4.24h-.586l-.77 2.244h-.011l-.777-2.244h-.581v4.239h.606V27.39h.011l.593 1.823h.302l.598-1.823h.011v2.578h.605zm3.441-3.942a.834.834 0 00-.342-.232 1.31 1.31 0 00-.416-.066h-.024.001-.9v4.24h.604v-1.656h.311a1.1 1.1 0 00.545-.116.88.88 0 00.329-.32l.002-.004a1 1 0 00.138-.369c.021-.133.033-.287.033-.444v-.04.002a2.426 2.426 0 00-.059-.606.906.906 0 00-.223-.39zm-.312 1.292a.538.538 0 01-.057.224l.001-.003a.342.342 0 01-.154.147l-.002.001a.617.617 0 01-.254.054l-.033-.001h.002-.275V26.3h.311l.029-.001c.088 0 .172.02.247.055l-.004-.002a.35.35 0 01.141.154l.001.002a.62.62 0 01.053.236v.282c0 .098.006.201 0 .291h-.006zm3.173-1.59h-.495l-.934 4.24h.604l.177-.911h.823l.178.911h.604l-.958-4.24zm-.557 2.752l.297-1.537h.011l.295 1.537h-.604zm4.46-.198h-.011l-.913-2.554h-.58v4.24h.604v-2.55h.012l.923 2.549h.569v-4.239h-.604v2.554zm3.691-2.554l-.486 1.686h-.012l-.486-1.686h-.639l.83 2.448v1.791h.604v-1.791l.83-2.447h-.64zM0 31.166h.291v.817h.198v-.817h.289v-.167H0v.168zm2.447-.168l-.382.985h.21l.081-.224h.392l.084.224h.215l-.391-.985h-.21zm-.03.595l.134-.365.134.365h-.268zm2.449.027h.228v.127a.378.378 0 01-.234.083h-.014a.25.25 0 01-.195-.094.406.406 0 01-.073-.234l.001-.023v.001c0-.219.095-.329.283-.329l.021-.001c.097 0 .178.067.201.157v.001l.194-.038c-.042-.192-.18-.289-.417-.289h-.013a.492.492 0 00-.331.127.48.48 0 00-.141.38v-.002.023c0 .132.048.254.127.347l-.001-.001c.087.09.209.146.343.146L4.877 32h-.001.016c.155 0 .296-.06.402-.157v-.388h-.426v.166zm2.471-.622h-.198v.985h.689v-.167h-.49v-.817zm2.089 0h-.199v.985h.199v-.985zm2.042.657l-.403-.657h-.193v.985h.185v-.643l.396.643h.198v-.985h-.182v.658zm1.847-.106h.49v-.167h-.49v-.215h.527v-.168h-.727v.985h.747v-.167h-.548v-.266zm4.477-.163h-.388v-.388h-.198v.984h.198v-.431h.388v.431h.198v-.985h-.197v.388zm1.857.163h.492v-.167h-.492v-.215h.529v-.168h-.726v.985h.746v-.167h-.548v-.266zm2.519.001c.172-.027.258-.118.258-.274a.23.23 0 00-.095-.219h-.001a.555.555 0 00-.25-.059l-.04.001h.002-.417v.984h.197v-.412h.055c.039 0 .076.008.109.023l-.002-.001a.201.201 0 01.07.072l.215.313h.236l-.119-.192a.697.697 0 00-.216-.235l-.002-.002zm-.199-.137h-.146v-.247h.156a.515.515 0 01.205.024l-.004-.001a.126.126 0 01.028.157v-.001a.128.128 0 01-.037.043.537.537 0 01-.164.025l-.038-.001h.002zm2.099.136h.49v-.167h-.49v-.215h.529v-.168h-.728v.985h.747v-.167h-.548v-.266z"/>
    </symbol>
    <!-- client-4 -->
    <symbol id="client-4" viewBox="0 0 31 32">
        <path d="M4.723 31.103c.023.001.044.01.06.025l.153.161c-.119.13-.266.234-.431.304a1.533 1.533 0 01-.61.109h-.031c-.196 0-.383-.038-.554-.106l.01.004a1.25 1.25 0 01-.709-.725l-.003-.009a1.591 1.591 0 01-.097-.55v-.022-.022c0-.198.038-.387.108-.56l-.004.01a1.318 1.318 0 01.757-.734 1.65 1.65 0 01.592-.102c.188-.004.374.027.549.093.151.063.29.149.412.257l-.129.171a.118.118 0 01-.032.031.077.077 0 01-.045.014h-.007a.12.12 0 01-.056-.019l-.069-.045-.096-.059a1.024 1.024 0 00-.296-.101l-.006-.001a1.233 1.233 0 00-.209-.018h-.02.001-.016c-.147 0-.288.028-.417.079l.008-.003a.964.964 0 00-.333.216 1.002 1.002 0 00-.216.342 1.27 1.27 0 00-.079.452c-.002.156.025.313.079.46.046.126.119.242.212.341a.863.863 0 00.318.212c.125.049.259.074.394.073.078.001.156-.004.234-.015a.879.879 0 00.505-.235.112.112 0 01.073-.03zm4.421-.807c.002.194-.033.387-.103.568a1.246 1.246 0 01-.288.44 1.314 1.314 0 01-.444.286l-.009.003a1.695 1.695 0 01-1.176-.004l.012.004a1.331 1.331 0 01-.45-.29 1.3 1.3 0 01-.288-.436l-.003-.009a1.614 1.614 0 01.004-1.147l-.004.011a1.34 1.34 0 01.29-.447 1.32 1.32 0 01.441-.276l.009-.003A1.674 1.674 0 018.311 29l-.012-.004a1.29 1.29 0 01.741.729c.071.182.106.376.104.571zm-.402 0v-.024c0-.155-.027-.303-.076-.441l.003.009a.907.907 0 00-.522-.554l-.006-.002a1.219 1.219 0 00-.855.003l.009-.003a.903.903 0 00-.528.55l-.002.006a1.465 1.465 0 000 .912.899.899 0 00.524.552l.006.002c.273.097.573.097.846 0a.903.903 0 00.324-.214.972.972 0 00.205-.341 1.29 1.29 0 00.073-.456zm3.418.478l.041.102c.015-.036.028-.069.044-.102.017-.04.034-.073.052-.105l-.003.005.978-1.694c.019-.03.036-.048.056-.053s.043-.009.066-.009h.015-.001.289v2.755h-.342v-2.11l-.001-.048.002-.05v.002l-.984 1.718a.149.149 0 01-.057.062h-.001a.16.16 0 01-.082.022h-.057c-.03.001-.06-.007-.084-.022s-.045-.036-.058-.062v-.001l-1.012-1.73v2.212h-.331v-2.75h.303a.22.22 0 01.068.01h-.002a.107.107 0 01.053.052v.001l.999 1.696c.018.028.035.06.048.094l.001.004zm3.681-.136v1.031h-.383v-2.75h.887c.158 0 .311.022.455.063l-.012-.003a.927.927 0 01.337.171c.085.074.15.167.191.27a.925.925 0 01.066.352.84.84 0 01-.071.352.76.76 0 01-.205.274l-.001.001a.953.953 0 01-.333.181l-.007.002a1.498 1.498 0 01-.461.064l-.463-.007zm0-.296h.463a.961.961 0 00.297-.042.627.627 0 00.215-.12l-.001.001c.056-.049.1-.11.129-.178l.001-.003a.565.565 0 00.046-.225v-.008l.001-.028a.506.506 0 00-.041-.199l.001.003a.544.544 0 00-.133-.188.763.763 0 00-.457-.15l-.061.002h.003-.463v1.134zm5.145 1.331h-.307a.134.134 0 01-.079-.026.168.168 0 01-.049-.063v-.001l-.26-.665h-1.307l-.27.665a.152.152 0 01-.047.061.135.135 0 01-.081.028h-.307l1.148-2.756h.398l1.164 2.756zm-1.895-1.023h1.08l-.455-1.122c-.03-.07-.06-.157-.083-.245l-.003-.014-.045.144a1.282 1.282 0 01-.045.126l.003-.009-.452 1.119zm3.549-1.72c.023.013.043.03.058.05l1.674 2.076v-2.139h.342v2.756h-.196a.164.164 0 01-.074-.017h.001a.233.233 0 01-.061-.051L22.71 29.53a.753.753 0 010 .095v2.049h-.342v-2.756h.203c.024 0 .047.004.068.013zm4.897 1.647v1.094h-.383v-1.094l-1.058-1.66H26.445c.028 0 .054.009.075.024a.251.251 0 01.052.061l.001.001.662 1.07c.045.07.085.151.114.236l.002.008.05-.118a.89.89 0 01.066-.126l.653-1.078a.284.284 0 01.05-.059.117.117 0 01.076-.027h.352l-1.06 1.667zm-15.566-6.284c.167.02.335.037.505.051 2.582-1.101 4.768-2.902 6.282-5.18s2.29-4.93 2.23-7.625l-2.846-2.712c.189.894.297 1.921.297 2.974 0 2.015-.396 3.937-1.115 5.694l.036-.1c-1.09 2.731-2.956 5.12-5.389 6.899z"/>
        <path d="M10.954 24.167l.077.015c2.6-1.773 4.583-4.247 5.692-7.104.627-1.564.99-3.377.99-5.275 0-1.296-.17-2.553-.488-3.75l.023.102-4.054-3.862c1.269 2.396 2.014 5.238 2.014 8.254 0 .702-.04 1.394-.119 2.075l.008-.083c-.396 3.519-1.833 6.857-4.143 9.628zm13.75-9.443c-.689 2.962-2.361 5.632-4.77 7.616a14.98 14.98 0 01-2.191 1.51l-.075.039a13.579 13.579 0 005.285-2.851l-.016.013a12.76 12.76 0 003.38-4.679l.031-.084-1.645-1.565z"/>
        <path d="M24.06 14.288l-2.341-2.23a13.684 13.684 0 01-2.23 7.249l.032-.053c-1.394 2.169-3.373 3.943-5.729 5.137h.012c.525 0 1.049-.03 1.571-.089a14.47 14.47 0 005.65-3.95l.014-.017a13.397 13.397 0 003.005-5.958l.016-.089zM11.294 2.664L8.501 0c-2.497.919-4.644 2.535-6.16 4.636S.008 9.225.001 11.775c.01 2.818 1.005 5.552 2.829 7.77s4.372 3.793 7.242 4.476c2.562-2.973 4.061-6.647 4.281-10.488s-.851-7.648-3.059-10.87zm19.218 11.214c-.01-3.343-1.408-6.547-3.89-8.91s-5.843-3.696-9.352-3.706a13.674 13.674 0 00-4.741.841l17.099 16.29c.559-1.335.884-2.886.884-4.513v-.002z"/>
    </symbol>
    <!-- client-5 -->
    <symbol id="client-5" viewBox="0 0 60 32">
        <path d="M9.229 9.548h-.002c-1.684 0-3.049 1.331-3.049 2.971v.002c0 1.64 1.365 2.971 3.048 2.971h.002c1.684 0 3.049-1.331 3.049-2.971v-.002c0-1.64-1.365-2.97-3.049-2.97zm22.501-.949a8.508 8.508 0 00-2.59-6.075A8.954 8.954 0 0022.909 0c-2.339.004-4.581.912-6.236 2.523s-2.585 3.797-2.59 6.076v12.566S31.728 19.25 31.73 8.601v-.002zM0 25.289a5.909 5.909 0 001.801 4.226l.002.001a6.223 6.223 0 004.336 1.758 6.215 6.215 0 004.337-1.759l-.002.002a5.906 5.906 0 001.804-4.224v-8.746S0 17.882 0 25.29zm6.14 1.566h-.002c-.331 0-.639-.098-.897-.267l.006.004a1.579 1.579 0 01-.589-.693l-.004-.01a1.506 1.506 0 01-.089-.915l-.002.01c.062-.304.215-.583.439-.802.22-.213.5-.365.814-.427l.01-.002c.312-.061.635-.03.929.089s.545.319.722.577a1.546 1.546 0 01.146 1.481l.004-.01c-.08.191-.199.365-.348.511s-.327.262-.522.341a1.61 1.61 0 01-.616.12H6.14v-.006zm12.532-.971h-1.256v1.297h-.655v-3.173h2.067v.53h-1.412v.819h1.255v.528zm3.143-.218c0 .313-.055.586-.166.822a1.248 1.248 0 01-1.157.737h-.026.001c-.263 0-.498-.063-.704-.19a1.269 1.269 0 01-.476-.533l-.003-.008c-.109-.23-.173-.5-.173-.785v-.028.001-.158c0-.313.056-.588.168-.825a1.26 1.26 0 01.477-.547c.207-.128.442-.192.707-.192s.499.064.704.192c.206.127.365.309.477.547.114.237.17.511.17.822v.141zm-.662-.144c0-.333-.06-.586-.179-.759a.585.585 0 00-.485-.26l-.027.001h.001l-.025-.001a.58.58 0 00-.482.256l-.001.002c-.119.17-.179.42-.181.749v.155c0 .324.06.576.179.755s.29.268.514.268l.026.001c.2 0 .375-.101.479-.255l.001-.002c.118-.173.177-.424.179-.755v-.155zm2.783.826v-.018a.334.334 0 00-.13-.264l-.001-.001c-.087-.067-.244-.137-.471-.21a3.363 3.363 0 01-.558-.227l.019.009c-.36-.195-.54-.457-.54-.787 0-.171.048-.324.144-.458.098-.135.236-.24.417-.316s.385-.113.61-.113c.227 0 .429.042.607.124s.314.197.412.347c.099.15.149.32.149.511h-.655a.422.422 0 00-.137-.338c-.092-.082-.22-.123-.386-.123-.159 0-.284.034-.372.103a.315.315 0 00-.134.259v.008c0 .103.052.189.156.259s.258.135.46.196c.372.112.643.251.813.417s.255.372.255.618c0 .275-.104.491-.312.647s-.487.234-.839.234c-.244 0-.466-.045-.667-.133a1.081 1.081 0 01-.458-.365l-.002-.003a.934.934 0 01-.157-.522v-.019.001h.656c0 .35.209.525.628.525a.61.61 0 00.364-.094.31.31 0 00.131-.254v-.013.001zm3.491-1.811h-.973v2.644H25.8v-2.644h-.959v-.53h2.586v.53zm2.285 1.268h-1.255v.85h1.474v.525h-2.128v-3.173h2.124v.53h-1.469v.756h1.255v.513zm1.777.214h-.521v1.162h-.655v-3.173h1.18c.375 0 .664.083.868.251s.305.403.305.708a.992.992 0 01-.141.543.955.955 0 01-.419.341l-.006.002.687 1.297v.03h-.702l-.595-1.162zm-.521-.53h.528c.164 0 .291-.042.381-.124a.45.45 0 00.136-.323l-.001-.025v.001a.47.47 0 00-.129-.353c-.084-.086-.214-.129-.39-.129h-.525v.953zm3.963.573v1.119h-.654v-3.173h1.238c.238 0 .448.043.628.131.182.087.321.211.418.372s.147.342.147.548c0 .311-.107.557-.321.737-.212.179-.506.268-.883.268h-.573zm0-.529h.584c.173 0 .305-.041.394-.123.092-.081.138-.197.138-.348l.001-.023a.522.522 0 00-.139-.355.519.519 0 00-.38-.149h-.599v.997zm4.138.272h-1.255v.85h1.474v.525H37.16v-3.173h2.124v.53h-1.47v.756h1.256v.513zm3.036-1.268h-.973v2.644h-.654v-2.644h-.959v-.53h2.586v.53zm2.284 1.268h-1.256v.85h1.474v.525H42.48v-3.173h2.123v.53h-1.47v.756h1.256v.513zm1.777.214h-.521v1.162h-.655v-3.173h1.18c.375 0 .665.083.868.251s.305.403.305.708a.992.992 0 01-.141.543.955.955 0 01-.419.341l-.006.002.687 1.297v.03h-.703l-.595-1.162zm-.521-.53h.527c.164 0 .292-.042.382-.124a.45.45 0 00.136-.323l-.001-.025v.001a.474.474 0 00-.129-.353c-.084-.086-.214-.129-.391-.129h-.525v.953zm3.844.859v-.018a.329.329 0 00-.131-.264l-.001-.001c-.088-.067-.244-.137-.471-.21a3.363 3.363 0 01-.558-.227l.019.009c-.36-.195-.54-.457-.54-.787 0-.171.048-.324.144-.458s.236-.24.417-.316c.182-.075.385-.113.61-.113.227 0 .429.042.606.124s.315.197.412.347c.099.15.149.32.149.511h-.655a.422.422 0 00-.137-.338c-.092-.082-.22-.123-.386-.123-.16 0-.284.034-.372.103a.315.315 0 00-.134.259v.008c0 .103.052.189.156.259s.258.135.46.196c.372.112.643.251.813.417s.255.372.255.618c0 .275-.104.491-.312.647s-.487.234-.839.234c-.244 0-.466-.045-.667-.133a1.087 1.087 0 01-.458-.365l-.002-.003a.934.934 0 01-.157-.522v-.019.001h.656c0 .35.208.525.627.525a.614.614 0 00.365-.094.311.311 0 00.13-.253v-.014.001z"/>
    </symbol>
    <!-- client-6 -->
    <symbol id="client-6" viewBox="0 0 40 32">
        <path d="M3.056 26.742c.157.194.24.438.236.688l.001.053c0 .324-.141.615-.365.815l-.001.001a1.575 1.575 0 01-1.061.317H.001v-4.361h1.827a1.548 1.548 0 011.017.294l-.004-.003a.994.994 0 01.353.818v-.003c.011.24-.065.477-.212.667a.99.99 0 01-.556.34c.247.046.471.177.63.373zm-2.188-.658h.78a.733.733 0 00.497-.145.518.518 0 00.169-.383l-.002-.045v.002l.001-.037a.535.535 0 00-.167-.389.75.75 0 00-.514-.147h.003-.767v1.144zm1.354 1.672a.542.542 0 00.186-.408l-.001-.036v.002l.001-.032a.552.552 0 00-.189-.416l-.001-.001a.8.8 0 00-.48-.159l-.054.002h.002-.818v1.199h.829a.816.816 0 00.524-.151zm4.567.861l-1.016-1.704h-.382v1.704h-.874v-4.361h1.654a1.624 1.624 0 011.156.373l-.003-.002a1.391 1.391 0 01.12 1.808l.003-.004a1.337 1.337 0 01-.789.443l1.083 1.743H6.79zm-1.397-2.299h.715c.497 0 .745-.22.745-.66l.001-.037a.647.647 0 00-.184-.453.767.767 0 00-.566-.177h.003-.724l.009 1.328zm6.176 1.421H9.826l-.308.878h-.916l1.6-4.313h.991l1.593 4.312h-.916l-.301-.878zm-.233-.66l-.637-1.84-.637 1.84h1.273zm6.215 1.538h-.869l-1.945-2.965v2.965h-.866v-4.361h.866l1.945 2.982v-2.982h.868v4.361zm4.952-1.044c-.182.33-.45.593-.775.764l-.01.005a2.545 2.545 0 01-1.22.274h-1.546v-4.361h1.546l.067-.001c.42 0 .817.1 1.168.277l-.015-.007c.332.168.606.433.785.761.171.333.272.727.272 1.144s-.1.811-.278 1.158l.007-.014zm-.993-.104c.239-.278.384-.642.384-1.041s-.145-.763-.386-1.043l.002.002a1.5 1.5 0 00-1.091-.371h.004-.603v2.823h.603a1.496 1.496 0 001.088-.372l-.002.001zM12.112 0s11.201 4.246 10.962 10.39v10.392S11.881 16.534 12.115 10.39L12.112 0zm20.941 18.349a15.15 15.15 0 017.049-2.628l.068-.006v-3.253c-2.995 1.181-5.437 3.227-7.081 5.827l-.035.06z"/>
        <path d="M31.782 19.329c1.749-3.487 4.693-6.158 8.283-7.513l.105-.035V2.408S24.218 8.456 24.555 17.205v14.796s.711-.27 1.829-.778c0-.473 0-.95.051-1.43a15.39 15.39 0 015.325-10.446l.021-.017z"/>
        <path d="M30.266 24.825a15.3 15.3 0 01.558-3.03 14.243 14.243 0 00-3.378 8.921v.016a44.08 44.08 0 003.286-1.741l-.218.118c-.191-.908-.3-1.952-.3-3.021 0-.445.019-.885.056-1.32l-.004.057zm.634.053a14.803 14.803 0 00.212 3.971l-.015-.092c4.357-2.619 9.255-6.664 9.066-11.553v-.426a14.265 14.265 0 00-8.297 3.894l.005-.005a14.26 14.26 0 00-.968 4.158l-.003.052z"/>
    </symbol>
<!-- FORM icons -->
    <symbol id="email-black" viewBox="0 0 32 32">

<path d="M26.667 5.333h-21.333c-1.467 0-2.653 1.2-2.653 2.667l-0.013 16c0 1.467 1.2 2.667 2.667 2.667h21.333c1.467 0 2.667-1.2 2.667-2.667v-16c0-1.467-1.2-2.667-2.667-2.667zM26.133 11l-9.427 5.893c-0.427 0.267-0.987 0.267-1.413 0l-9.427-5.893c-0.333-0.213-0.533-0.573-0.533-0.96 0-0.893 0.973-1.427 1.733-0.96l8.933 5.587 8.933-5.587c0.76-0.467 1.733 0.067 1.733 0.96 0 0.387-0.2 0.747-0.533 0.96z"></path>
    </symbol>
<symbol id="pnone-black" viewBox="0 0 32 32">

<path d="M24.882 19.773l-3.268-0.373c-0.785-0.090-1.557 0.18-2.11 0.733l-2.367 2.367c-3.641-1.853-6.626-4.825-8.478-8.478l2.38-2.38c0.553-0.553 0.823-1.325 0.733-2.11l-0.373-3.242c-0.154-1.299-1.248-2.277-2.56-2.277h-2.226c-1.454 0-2.663 1.209-2.573 2.663 0.682 10.987 9.469 19.761 20.443 20.443 1.454 0.090 2.663-1.119 2.663-2.573v-2.226c0.013-1.3-0.965-2.393-2.264-2.547z"></path>
    </symbol>
<symbol id="person-black" viewBox="0 0 32 32">

<path d="M16 16c2.947 0 5.333-2.387 5.333-5.333s-2.387-5.333-5.333-5.333c-2.947 0-5.333 2.387-5.333 5.333s2.387 5.333 5.333 5.333zM16 18.667c-3.56 0-10.667 1.787-10.667 5.333v1.333c0 0.733 0.6 1.333 1.333 1.333h18.667c0.733 0 1.333-0.6 1.333-1.333v-1.333c0-3.547-7.107-5.333-10.667-5.333z"></path>
    </symbol>

    <symbol id="vector-x" viewBox="0 0 32 32">
<path  d="M32 3.223l-3.223-3.223-12.777 12.777-12.777-12.777-3.223 3.223 12.777 12.777-12.777 12.777 3.223 3.223 12.777-12.777 12.777 12.777 3.223-3.223-12.777-12.777 12.777-12.777z"></path>
</symbol>

<symbol id="vector-y" viewBox="0 0 42 32">
<path  stroke-width="0.64" stroke-miterlimit="4" stroke-linecap="butt" stroke-linejoin="miter"   d="M6.263 15.205l-0.22-0.21-3.307 3.132 11.651 11.114 24.477-23.351-3.285-3.134-21.192 20.197-8.124-7.75z"></path>
</symbol>


<symbol id="square" width="16" height="15" viewBox="0 0 16 15"  >
<path d="M14.2222 1.66667V13.3333H1.77778V1.66667H14.2222ZM14.2222 0H1.77778C0.8 0 0 0.75 0 1.66667V13.3333C0 14.25 0.8 15 1.77778 15H14.2222C15.2 15 16 14.25 16 13.3333V1.66667C16 0.75 15.2 0 14.2222 0Z" fill="#212121"/>
</symbol>



<symbol id="open-menu-mobile" width="24" height="16" viewBox="0 0 24 16"  >
<path fill-rule="evenodd" clip-rule="evenodd" d="M0 2.66667V0H24V2.66667H0ZM0 9.33333H24V6.66667H0V9.33333ZM0 16H24V13.3333H0V16Z" />
</symbol>


<symbol id="close-menu-mobile" width="19" height="19" viewBox="0 0 19 19" >
<path d="M18.6667 1.88L16.7867 0L9.33333 7.45334L1.88 0L0 1.88L7.45334 9.33333L0 16.7867L1.88 18.6667L9.33333 11.2133L16.7867 18.6667L18.6667 16.7867L11.2133 9.33333L18.6667 1.88Z" />
</symbol>

</svg>

